<?xml version="1.0" encoding="UTF-8" standalone="no"?>
<!-- Created with Inkscape (http://www.inkscape.org/) -->

<svg
   width="308"
   height="72"
   viewBox="0 0 81.491663 19.05"
   version="1.1"
   id="svg5"
   xmlns="http://www.w3.org/2000/svg"
   xmlns:svg="http://www.w3.org/2000/svg">
  <defs
     id="defs2" />
  <g
     id="layer1">
    <circle
       style="fill:none;stroke:#000000;stroke-width:2.117;stroke-linecap:round;stroke-linejoin:round;stroke-dasharray:none;stroke-opacity:1"
       id="path4347-1"
       cx="5.2916665"
       cy="9.5250006"
       r="4.2333331" />
    <circle
       style="fill:none;stroke:#000000;stroke-width:2.117;stroke-linecap:round;stroke-linejoin:round;stroke-dasharray:none;stroke-opacity:1"
       id="path4347-1-86"
       cx="34.924999"
       cy="9.5249996"
       r="4.2333331" />
    <circle
       style="fill:none;stroke:#000000;stroke-width:2.117;stroke-linecap:round;stroke-linejoin:round;stroke-dasharray:none;stroke-opacity:1"
       id="path4347-1-86-6"
       cx="58.208332"
       cy="9.5250006"
       r="4.2333331" />
    <path
       id="path4347-1-86-4"
       style="fill:none;stroke:#000000;stroke-width:2.117;stroke-linecap:round;stroke-linejoin:round"
       d="m 42.333333,7.4083332 c 0,0 2.116667,-2.1166666 4.233333,-2.1166658 2.338005,1e-7 4.233333,1.8953278 4.233333,4.2333331 0,2.3380045 -1.895328,4.2333325 -4.233333,4.2333325 -2.116666,0 -4.233333,-2.116667 -4.233333,-2.116667" />
    <path
       id="path4347-1-8"
       style="fill:none;stroke:#000000;stroke-width:2.117;stroke-linecap:round;stroke-linejoin:round"
       d="m 27.516666,13.758332 c -2.338005,0 -4.233333,-1.895328 -4.233333,-4.2333321 0,-8.4666673 0,-8.4666673 0,-8.4666673" />
    <path
       id="path4347-1-8-7"
       style="fill:none;stroke:#000000;stroke-width:2.117;stroke-linecap:round;stroke-linejoin:round"
       d="m 80.433332,13.758333 c -2.338005,0 -4.233333,-1.895328 -4.233333,-4.2333331 0,-8.4666671 0,-8.4666671 0,-8.4666671" />
    <path
       id="path4349"
       style="fill:none;stroke:#000000;stroke-width:2.117;stroke-linecap:round;stroke-linejoin:round"
       d="m 19.050167,13.758166 c 0,0 0,0 -2.116668,0 -2.338005,0 -4.233333,-1.895328 -4.233333,-4.233333 0,-2.3380053 1.895328,-4.2333331 4.233333,-4.2333331 2.116668,0 2.116668,0 2.116668,0" />
    <path
       style="fill:none;stroke:#000000;stroke-width:2.117;stroke-linecap:round;stroke-linejoin:round;stroke-dasharray:none;stroke-opacity:1"
       d="m 21.166666,3.1749999 c 6.35,0 6.35,0 6.35,0"
       id="path4457" />
    <path
       style="fill:none;stroke:#000000;stroke-width:2.117;stroke-linecap:round;stroke-linejoin:round;stroke-dasharray:none;stroke-opacity:1"
       d="m 74.083333,3.1749999 c 6.35,0 6.35,0 6.35,0"
       id="path4457-6" />
    <path
       style="fill:none;stroke:#000000;stroke-width:2.117;stroke-linecap:round;stroke-linejoin:round;stroke-dasharray:none;stroke-opacity:1"
       d="m 42.333333,5.2916666 c 0,12.6999994 0,12.6999994 0,12.6999994"
       id="path4481" />
    <path
       style="fill:none;stroke:#000000;stroke-width:2.117;stroke-linecap:round;stroke-linejoin:round;stroke-dasharray:none;stroke-opacity:1"
       d="m 65.616666,12.7 c 1.5875,1.058333 3.175,1.058333 3.175,1.058333 3.175,0 3.175,-2.116667 3.175,-2.116667 0,-2.1166661 -3.175,-2.1166661 -3.175,-2.1166661 0,0 -3.175,0 -3.175,-2.1166666 0,0 0,-2.116667 3.175,-2.116667 0,0 1.5875,0 3.175,1.058333"
       id="path6072" />
  </g>
</svg>
